#!OML:ASF H:\Pregnant\Project 1\Capture day 1\Session 1\femalepreg.ASF
:FULLY-SPECIFIED
:DEGREES
3711
root 9.67331 13.2202 27.1345 441.785 -32.596 -405.721
lowerback 11.2261 -8.59297 -29.2997
upperback -7.12899 -17.9195 -9.42459
thorax -9.16603 -6.83097 6.82388
lowerneck -30.7689 -2.46978 -0.202131
upperneck 23.4342 -8.18777 14.3419
head 13.9036 -1.61112 4.08585
rclavicle -3.18055e-015 6.99722e-014
rhumerus -37.5792 -40.5934 30.8035
rradius 25.1991
rwrist 10.4295
rhand -27.0632 -26.5369
rfingers 7.12502
rthumb -0.48112 -56.5161
lclavicle -3.18055e-015 6.99722e-014
lhumerus -12.071 15.7026 -2.87524
lradius 22.6424
lwrist -4.04549
lhand -24.1372 -16.0059
lfingers 7.12502
lthumb 2.34483 13.9609
rfemur -25.6965 18.1161 36.4931
rtibia 4.77083e-014
rfoot -16.8571 -14.3362
rtoes -16.9614
lfemur -157.499 19.6978 273.558
ltibia 30.6009
lfoot -115.731 182.999
ltoes 64.7821
3712
root 9.67593 13.2192 27.1349 441.793 -32.5668 -405.715
lowerback 11.2641 -8.59099 -29.3231
upperback -7.12662 -17.9309 -9.41049
thorax -9.16989 -6.8324 6.85371
lowerneck -30.8 -2.48329 -0.269039
upperneck 23.434 -8.18209 14.3613
head 13.9127 -1.61058 4.10698
rclavicle 9.54166e-014 -5.64548e-014
rhumerus -37.5609 -40.8165 30.9722
rradius 25.0459
rwrist 10.8106
rhand -27.0089 -26.5466
rfingers 7.12502
rthumb -0.42873 -56.5259
lclavicle 9.54166e-014 -5.64548e-014
lhumerus -12.0233 15.6418 -2.82877
lradius 22.6161
lwrist -4.09802
lhand -24.0833 -15.9555
lfingers 7.12502
lthumb 2.39694 14.0108
rfemur -25.7193 18.1103 36.5036
rtibia -2.22639e-014
rfoot -16.8634 -14.3254
rtoes -16.9141
lfemur -157.488 19.662 273.589
ltibia 30.5987
lfoot -115.724 183.003
ltoes 64.7792
3713
root 9.6787 13.2183 27.1354 441.796 -32.5378 -405.705
lowerback 11.3076 -8.58937 -29.344
upperback -7.12429 -17.9451 -9.3985
thorax -9.17736 -6.83471 6.88184
lowerneck -30.8232 -2.49303 -0.333026
upperneck 23.432 -8.17091 14.3786
head 13.9187 -1.60806 4.12778
rclavicle -1.06549e-013 -8.94531e-014
rhumerus -37.5358 -41.0181 31.1176
rradius 24.9267
rwrist 11.1383
rhand -26.9309 -26.6003
rfingers 7.12502
rthumb -0.353331 -56.5797
lclavicle -1.06549e-013 -8.94531e-014
lhumerus -11.9752 15.5741 -2.78693
lradius 22.5921
lwrist -4.13459
lhand -24.0435 -15.9334
lfingers 7.12502
lthumb 2.4353 14.0325
rfemur -25.7398 18.1005 36.5136
rtibia -6.36111e-015
rfoot -16.8704 -14.3143
rtoes -16.8614
lfemur -157.475 19.6142 273.609
ltibia 30.5973
lfoot -115.703 182.992
ltoes 64.7767
3714
root 9.68153 13.2173 27.1359 441.803 -32.5109 -405.698
lowerback 11.3474 -8.58889 -29.3638
upperback -7.12272 -17.96 -9.38908
thorax -9.18475 -6.8376 6.90634
lowerneck -30.8363 -2.49881 -0.394456
upperneck 23.4228 -8.1547 14.3992
head 13.9193 -1.60345 4.15009
rclavicle 2.38542e-014 -8.90555e-014
rhumerus -37.5044 -41.1928 31.2309
rradius 24.8491
rwrist 11.3827
rhand -26.8618 -26.632
rfingers 7.12502
rthumb -0.286641 -56.6116
lclavicle 2.38542e-014 -8.90555e-014
lhumerus -11.9299 15.5101 -2.75145
lradius 22.5744
lwrist -4.16527
lhand -24.0306 -15.9257
lfingers 7.12502
lthumb 2.44777 14.04
rfemur -25.7625 18.0939 36.5215
rtibia -6.04305e-014
rfoot -16.8759 -14.3037
rtoes -16.803
lfemur -157.464 19.5751 273.634
ltibia 30.597
lfoot -115.691 182.985
ltoes 64.7751
3715
root 9.68451 13.2164 27.1366 441.807 -32.4866 -405.688
lowerback 11.39 -8.58862 -29.3847
upperback -7.12048 -17.9766 -9.38182
thorax -9.19295 -6.84116 6.92962
lowerneck -30.8552 -2.50071 -0.439436
upperneck 23.4221 -8.1356 14.3999
head 13.9221 -1.59803 4.16248
rclavicle -1.11319e-014 -4.45278e-014
rhumerus -37.4576 -41.3207 31.3041
rradius 24.8074
rwrist 11.5101
rhand -26.7933 -26.6592
rfingers 7.12502
rthumb -0.220448 -56.6389
lclavicle -1.11319e-014 -4.45278e-014
lhumerus -11.8854 15.4519 -2.71877
lradius 22.5643
lwrist -4.1853
lhand -24.049 -15.9108
lfingers 7.12502
lthumb 2.43008 14.0551
rfemur -25.7856 18.0845 36.5259
rtibia -9.54166e-015
rfoot -16.8846 -14.2925
rtoes -16.7311
lfemur -157.446 19.5475 273.667
ltibia 30.5968
lfoot -115.692 182.986
ltoes 64.7743
